<svg height="448pt" viewBox="0 -8 448 448" width="448pt" xmlns="http://www.w3.org/2000/svg" xmlns:xlink="http://www.w3.org/1999/xlink"><linearGradient id="linear0" gradientUnits="userSpaceOnUse" x1="70" x2="378" y1="374" y2="66"><stop offset="0" stop-color="#41dfd0"/><stop offset="1" stop-color="#ee83ef"/></linearGradient><path d="m85.230469 364.390625c-2.421875 3.691406-7.378907 4.71875-11.070313 2.296875-3.734375-2.449219-7.308594-5.136719-10.695312-8.046875l-10-8.5625c-3.359375-2.871094-3.753906-7.921875-.878906-11.277344 2.871093-3.359375 7.921874-3.753906 11.277343-.878906l10 8.574219c2.871094 2.460937 5.894531 4.738281 9.058594 6.816406 3.699219 2.417969 4.734375 7.382812 2.308594 11.078125zm65.433593 2.34375c-4.949218.839844-9.957031 1.265625-14.976562 1.265625h-3.6875c-8.703125 0-17.363281-1.273438-25.695312-3.785156-4.234376-1.269532-8.695313 1.128906-9.96875 5.359375-1.273438 4.234375 1.128906 8.699219 5.359374 9.96875 9.832032 2.953125 20.039063 4.457031 30.304688 4.457031h3.6875c5.914062 0 11.816406-.5 17.648438-1.488281 4.355468-.738281 7.289062-4.867188 6.550781-9.222657-.738281-4.359374-4.867188-7.289062-9.222657-6.554687zm233.464844-28.796875-10 8.574219c-2.871094 2.460937-5.898437 4.738281-9.058594 6.816406-3.691406 2.429687-4.714843 7.394531-2.285156 11.085937 2.429688 3.695313 7.394532 4.71875 11.085938 2.289063 3.734375-2.433594 7.304687-5.105469 10.695312-8l10-8.566406c3.359375-2.871094 3.753906-7.921875.882813-11.28125-2.875-3.355469-7.921875-3.75-11.28125-.878907zm-42.402344 26.292969c-8.34375 2.511719-17.011718 3.78125-25.726562 3.769531h-3.6875c-5.019531-.003906-10.027344-.425781-14.976562-1.265625-4.355469-.734375-8.484376 2.195313-9.222657 6.554687-.738281 4.355469 2.195313 8.484376 6.550781 9.222657 5.832032.988281 11.734376 1.488281 17.648438 1.488281h3.6875c10.265625 0 20.472656-1.503906 30.304688-4.457031 4.230468-1.269531 6.632812-5.734375 5.359374-9.96875-1.273437-4.230469-5.734374-6.628907-9.96875-5.359375zm71.511719-74.285157c1.773438 1.519532 2.792969 3.738282 2.792969 6.070313 0 2.335937-1.019531 4.550781-2.792969 6.074219l-28.636719 24.558594c-19.117187 16.351562-43.445312 25.339843-68.601562 25.351562h-3.679688c-10.859374.007812-21.65625-1.671875-32-4.976562-6.140624 33.257812-24.523437 63.007812-51.519531 83.375-2.84375 2.136718-6.757812 2.136718-9.601562 0-27.011719-20.363282-45.402344-50.117188-51.550781-83.382813-10.34375 3.3125-21.140626 4.992187-32 4.984375h-3.648438c-25.144531-.023438-49.453125-9.015625-68.558594-25.359375l-28.648437-24.570313c-1.773438-1.519531-2.792969-3.734374-2.792969-6.070312s1.019531-4.550781 2.792969-6.070312l28.640625-24.5625c9.832031-8.398438 21.132812-14.90625 33.335937-19.199219-7.601562-13.007813-12.742187-27.300781-15.167969-42.167969l-13.042968-82.71875c-.394532-2.527344.441406-5.089844 2.246094-6.898438 1.808593-1.808593 4.375-2.644531 6.898437-2.246093l57.296875 9.039062 18.3125-44.199219c.980469-2.363281 3.027344-4.113281 5.511719-4.710937 2.484375-.617187 5.113281.011719 7.054687 1.679687l19.855469 16.871094 31.320313-54.816406c1.542968-2.332031 4.148437-3.738281 6.945312-3.738281s5.402344 1.40625 6.945312 3.738281l31.300782 54.742188 19.859375-16.871094c1.949219-1.652344 4.570312-2.277344 7.054687-1.675782 2.484375.601563 4.535156 2.355469 5.511719 4.714844l18.542969 44.875 61.539062-9.714844c2.527344-.421874 5.101563.414063 6.902344 2.242188 1.808594 1.808594 2.644531 4.375 2.246094 6.902344l-13.054688 82.722656c-2.480468 15.421875-7.914062 30.222656-16 43.589844 10.804688 4.277344 20.832032 10.304687 29.679688 17.839844zm-118.679687-148.992187c-49.15625 7.761719-86.390625 48.511719-89.703125 98.167969l-.296875 4.542968c-.863282 12.917969 3.890625 25.578126 13.042968 34.734376 3.375 3.382812 7.265626 6.207031 11.527344 8.371093.109375.039063.199219.085938.304688.132813 7.082031 3.539062 14.988281 5.109375 22.886718 4.546875l4.542969-.304688c33.03125-2.289062 63.148438-19.710937 81.601563-47.199219 8.550781-12.796874 14.207031-27.300781 16.574218-42.503906l11.359376-71.839844zm-24.230469-36.050781 5.257813 9.203125c2.398437 4.140625 4.644531 8.574219 6.863281 13.109375 3.199219-.800782 6.398437-1.550782 9.597656-2.054688l4.90625-.800781-12.882813-31.199219zm-88.585937 25.601562c16.730468 5.742188 31.941406 15.199219 44.496093 27.65625 5.21875-5.15625 10.894531-9.828125 16.960938-13.953125 7.453125-4.949219 15.425781-9.070312 23.777343-12.285156-1.703124-3.394531-3.449218-6.699219-5.28125-9.890625l-37.695312-65.910156-37.695312 65.933594c-1.503907 2.746093-3.046876 5.539062-4.5625 8.472656zm-30.46875-6.824218 9.101562 1.441406c1.839844.261718 3.714844.589844 5.679688 1 2.097656-4.167969 4.191406-8.183594 6.335937-12l5.28125-9.25-13.769531-11.671875zm-53.847657 77.777343c2.398438 15.1875 8.054688 29.675781 16.582031 42.472657l1.601563 2.246093c8.839844 12.632813 20.339844 23.171875 33.695313 30.878907 8.921874 5.125 18.539062 8.929687 28.550781 11.296874 5.800781 1.445313 11.722656 2.371094 17.6875 2.761719l4.632812.328125c2.59375.121094 5.195313.03125 7.777344-.273437-.546875-.503907-1.121094-.960938-1.640625-1.488281-12.425781-12.410157-18.875-29.582032-17.695312-47.105469l.292968-4.542969c1.773438-24.851562 11.046875-48.578125 26.59375-68.046875-13.042968-13.011719-29.324218-22.304687-47.160156-26.921875-3.425781-.890625-6.898438-1.601562-10.398438-2.132812l-71.847656-11.328126zm73.429688 127.34375c10.46875-4.449219 19.976562-10.878906 28-18.9375l2.402343-2.398437c-.699218 0-1.402343 0-2.105468-.066406l-4.617188-.328126c-6.875-.453124-13.691406-1.527343-20.375-3.199218-27.070312-6.308594-51.109375-21.828125-68-43.902344-11.859375 3.519531-22.851562 9.472656-32.28125 17.480469l-21.589844 18.550781 21.597657 18.496094c16.199219 13.851562 36.800781 21.476562 58.113281 21.503906h3.679688c12.09375.011719 24.0625-2.4375 35.175781-7.199219zm94.335937 12c-10.109375-5.015625-19.335937-11.632812-27.328125-19.601562l-13.863281-13.886719-13.863281 13.863281c-7.988281 7.976563-17.21875 14.605469-27.328125 19.625 4.433594 28.519531 19.070312 54.460938 41.191406 73 22.121094-18.539062 36.757812-44.480469 41.191406-73zm130.519532-44.800781-21.558594-18.496094c-8.476563-7.167968-18.207032-12.710937-28.695313-16.34375-21.488281 26.847656-53.210937 43.503906-87.511719 45.945313l-4.546874.300781c-1.351563.089844-2.710938.128906-4.0625.128906-.871094 0-1.742188-.085937-2.617188-.128906l2.457031 2.457031c8.011719 8.050781 17.503907 14.480469 27.953125 18.9375 11.121094 4.761719 23.097656 7.210938 35.199219 7.199219h3.679687c21.328126-.019531 41.953126-7.648438 58.160157-21.511719zm-395.710938 8h16v-16h-16zm64-216h-16v16h16zm168-72v-16h-16v16zm168 72h-16v16h16zm32 216h16v-16h-16zm0 0" fill="url(#linear0)"/></svg>